PathFileType	4	(X/Y/Z)	C:\Users\ebm\Documents\Erivelton\Erivelton2\wc5.trc
DataRate	CameraRate	NumFrames	NumMarkers	Units	OrigDataRate	OrigDataStartFrame	OrigNumFrames
150.00	150.00	      5	28	mm	150.00	845	      1126
Frame#	Time	IJ			PX			C7			T8			RAC			RAS			RPS			RAI			RPI			RLE			RME			RRS			RUS			R3M			R5M			LAC			LAS			LPS			LAI			LPI			LLE			LME			LRS			LUS			L3M			L5M			RW			LW			V_mid_elbow_r			V_mid_elbow_l			V_mid_wrist_r			V_mid_wrist_l			V_mid_trunk_low			V_mid_trunk_upp			
		X1	Y1	Z1	X2	Y2	Z2	X3	Y3	Z3	X4	Y4	Z4	X5	Y5	Z5	X6	Y6	Z6	X7	Y7	Z7	X8	Y8	Z8	X9	Y9	Z9	X10	Y10	Z10	X11	Y11	Z11	X12	Y12	Z12	X13	Y13	Z13	X14	Y14	Z14	X15	Y15	Z15	X16	Y16	Z16	X17	Y17	Z17	X18	Y18	Z18	X19	Y19	Z19	X20	Y20	Z20	X21	Y21	Z21	X22	Y22	Z22	X23	Y23	Z23	X24	Y24	Z24	X25	Y25	Z25	X26	Y26	Z26	X27	Y27	Z27	X28	Y28	Z28	

845	5.627	2980.43506	998.91016	-12.71404	2950.21021	836.38586	5.08441	2877.84937	1128.12585	-23.20551	2765.13062	1002.32458	-8.51189	2916.61011	1078.03333	186.54442	2827.99292	941.43768	283.93845	2794.04468	977.80371	278.43048	2781.30444	893.27307	324.53448	2742.94019	931.33350	320.76123	2712.74072	871.53363	352.51355	2676.51001	851.08862	281.47299	2858.70532	644.79456	317.41403	2812.88818	631.39307	354.06223	2876.38672	565.41302	347.99454	2838.99609	554.71783	353.78864	2910.28662	1060.99365	-200.64430	2818.62329	952.74146	-288.22601	2779.85474	969.03058	-264.62906	2778.75586	894.78040	-328.29095	2733.03613	911.15167	-302.80133	2723.83179	827.94891	-362.75873	2681.37769	812.20972	-296.68005	2890.51855	625.47638	-319.34592	2848.36865	592.78271	-353.42960	2916.51221	542.15240	-344.58078	2876.60132	534.03638	-350.18408	2828.07739	301.91418	312.09341	2822.49658	300.19235	-316.53577	
846	5.633	2992.25049	999.21558	-12.60992	2962.09229	836.81769	5.51852	2889.47461	1128.52539	-23.23376	2776.88623	1002.45087	-8.58543	2927.37329	1079.03931	186.15862	2836.25220	944.21960	283.03394	2802.97314	981.00238	276.95959	2788.44458	896.94739	323.36130	2750.55786	935.43793	318.87915	2719.25146	876.15674	350.60858	2683.65747	855.90668	279.03183	2863.42651	648.23792	315.64258	2817.60840	635.08301	352.64255	2881.26123	569.06580	346.36807	2843.87964	558.63019	352.64572	2921.67725	1061.97742	-200.42131	2827.72681	955.86932	-287.64511	2789.56299	972.68854	-263.39444	2786.34497	898.86121	-327.40463	2741.20776	916.05676	-301.34085	2729.87646	833.14911	-361.68741	2687.68213	818.03638	-295.14551	2894.10278	629.12823	-317.23450	2852.71289	596.81866	-352.37628	2921.24023	547.00616	-343.45865	2881.58960	538.42578	-349.72299	2839.87891	301.89874	312.00473	2834.19360	300.30069	-316.68396	
847	5.640	3003.97461	999.59210	-12.55519	2973.54785	836.82379	5.30905	2901.49829	1128.72278	-23.20700	2788.72388	1002.65082	-8.67863	2938.27490	1079.94629	185.75752	2844.75562	946.96515	282.44055	2812.04492	984.08838	275.45187	2795.73218	900.47418	322.07715	2758.43262	939.43542	316.85602	2725.93555	880.58783	348.56790	2691.04639	860.68542	276.47372	2868.28296	651.53058	313.73117	2822.43970	638.68610	351.21402	2886.18970	572.93677	345.51208	2848.79053	562.10229	351.59244	2933.12793	1062.84314	-200.14526	2836.71094	958.99377	-287.02515	2799.48608	976.30817	-262.16586	2793.94409	902.86218	-326.61508	2749.48389	920.75189	-299.81042	2736.13184	838.22479	-360.55566	2694.16577	823.80261	-293.57764	2896.64404	632.24768	-314.30154	2856.83496	600.75287	-351.19852	2925.78809	551.49066	-342.39630	2886.40527	542.61310	-349.16306	2851.69946	301.96887	311.84335	2845.90186	300.30350	-316.72733	
848	5.647	3015.83154	999.91498	-12.40756	2985.68286	837.52173	5.28121	2913.26147	1128.99902	-23.15378	2800.53296	1002.94080	-8.77343	2949.27588	1080.75159	185.46727	2853.50562	949.37445	281.19662	2821.25684	987.08392	273.90756	2803.29639	903.90417	320.73688	2766.57593	943.28174	314.79318	2732.93848	885.01697	346.38150	2698.76050	865.30005	273.80966	2873.20654	654.61194	312.03632	2827.42090	642.07104	349.59299	2891.49780	577.11194	343.23529	2853.92358	565.62769	350.14063	2944.47437	1063.68323	-199.85707	2845.91406	962.00330	-286.37259	2809.37793	979.75928	-260.98877	2801.81470	906.81409	-325.70676	2757.95459	925.27417	-298.19107	2742.70166	843.20038	-359.24304	2700.94238	829.45697	-291.87451	2899.92993	635.27295	-311.98270	2861.14063	604.31995	-350.09644	2930.40405	555.71765	-341.13046	2891.15869	546.48828	-348.55441	2863.20801	301.94040	311.81757	2857.65234	300.29031	-316.86856	
849	5.653	3027.64990	1000.18774	-12.32106	2997.60938	837.82178	5.33187	2925.19800	1129.35254	-23.09855	2812.30542	1003.24243	-8.85364	2960.41064	1081.45251	185.24219	2862.22412	951.86694	280.53558	2830.68457	989.84668	272.27780	2811.11206	907.12811	319.26257	2774.97583	946.97705	312.72437	2740.12744	889.24023	344.33298	2706.60229	869.74323	271.19122	2878.45679	657.57349	310.05695	2832.66724	645.31445	347.74023	2896.85767	580.19342	340.77032	2859.10229	568.92493	348.69946	2956.00293	1064.44519	-199.54224	2856.05200	964.33533	-285.49719	2819.42554	983.10309	-259.75427	2809.93652	910.56287	-324.73544	2766.62549	929.82074	-296.78458	2749.48511	847.97192	-357.88571	2707.97217	834.92517	-290.15579	2903.59814	638.08582	-309.78757	2865.14722	607.57306	-348.86746	2934.72949	559.53241	-339.92270	2895.82715	550.02429	-347.81699	2875.24756	302.06650	311.64954	2869.32593	300.35822	-317.02527	
